<mxfile host="app.diagrams.net" modified="2024-03-25T13:48:05.767Z" agent="Mozilla/5.0 (Macintosh; Intel Mac OS X 10_15_7) AppleWebKit/537.36 (KHTML, like Gecko) Chrome/123.0.0.0 Safari/537.36" etag="YumOARjHwiVkeoJnHKU2" version="24.0.7" type="google">
  <diagram name="Page-1" id="vy_G2ZAZ9zIRciHpGkRk">
    <mxGraphModel grid="1" page="1" gridSize="10" guides="1" tooltips="1" connect="1" arrows="1" fold="1" pageScale="1" pageWidth="827" pageHeight="1169" math="0" shadow="0">
      <root>
        <mxCell id="0" />
        <mxCell id="1" parent="0" />
        <mxCell id="-y_LgxugTVta52kixlfS-52" style="edgeStyle=orthogonalEdgeStyle;rounded=0;orthogonalLoop=1;jettySize=auto;html=1;entryX=0;entryY=0.5;entryDx=0;entryDy=0;" edge="1" parent="1" source="-y_LgxugTVta52kixlfS-2" target="-y_LgxugTVta52kixlfS-15">
          <mxGeometry relative="1" as="geometry">
            <Array as="points">
              <mxPoint x="85" y="150" />
            </Array>
          </mxGeometry>
        </mxCell>
        <mxCell id="-y_LgxugTVta52kixlfS-55" style="edgeStyle=orthogonalEdgeStyle;rounded=0;orthogonalLoop=1;jettySize=auto;html=1;" edge="1" parent="1" source="-y_LgxugTVta52kixlfS-2" target="-y_LgxugTVta52kixlfS-23">
          <mxGeometry relative="1" as="geometry" />
        </mxCell>
        <mxCell id="-y_LgxugTVta52kixlfS-2" value="EmployÃ©&lt;div&gt;&lt;br&gt;&lt;/div&gt;" style="shape=umlActor;verticalLabelPosition=bottom;verticalAlign=top;html=1;outlineConnect=0;" vertex="1" parent="1">
          <mxGeometry x="70" y="290" width="30" height="60" as="geometry" />
        </mxCell>
        <mxCell id="-y_LgxugTVta52kixlfS-15" value="Creer un&amp;nbsp;&lt;br&gt;Patient" style="ellipse;whiteSpace=wrap;html=1;" vertex="1" parent="1">
          <mxGeometry x="370" y="110" width="120" height="80" as="geometry" />
        </mxCell>
        <mxCell id="-y_LgxugTVta52kixlfS-17" value="&lt;div&gt;Include&lt;/div&gt;&lt;div&gt;&lt;br&gt;&lt;/div&gt;" style="text;html=1;align=center;verticalAlign=middle;resizable=0;points=[];autosize=1;strokeColor=none;fillColor=none;" vertex="1" parent="1">
          <mxGeometry x="550" y="270" width="60" height="40" as="geometry" />
        </mxCell>
        <mxCell id="-y_LgxugTVta52kixlfS-33" style="edgeStyle=orthogonalEdgeStyle;rounded=0;orthogonalLoop=1;jettySize=auto;html=1;dashed=1;dashPattern=8 8;" edge="1" parent="1" source="-y_LgxugTVta52kixlfS-20" target="-y_LgxugTVta52kixlfS-23">
          <mxGeometry relative="1" as="geometry" />
        </mxCell>
        <mxCell id="-y_LgxugTVta52kixlfS-36" style="edgeStyle=orthogonalEdgeStyle;rounded=0;orthogonalLoop=1;jettySize=auto;html=1;entryX=1;entryY=0.5;entryDx=0;entryDy=0;dashed=1;dashPattern=8 8;" edge="1" parent="1" source="-y_LgxugTVta52kixlfS-20" target="-y_LgxugTVta52kixlfS-15">
          <mxGeometry relative="1" as="geometry">
            <Array as="points">
              <mxPoint x="530" y="230" />
              <mxPoint x="530" y="150" />
            </Array>
          </mxGeometry>
        </mxCell>
        <mxCell id="-y_LgxugTVta52kixlfS-20" value="Liste Patient" style="ellipse;whiteSpace=wrap;html=1;" vertex="1" parent="1">
          <mxGeometry x="610" y="190" width="120" height="80" as="geometry" />
        </mxCell>
        <mxCell id="-y_LgxugTVta52kixlfS-23" value="Assigner un &lt;br&gt;patient&lt;div&gt;&lt;br&gt;&lt;/div&gt;" style="ellipse;whiteSpace=wrap;html=1;" vertex="1" parent="1">
          <mxGeometry x="490" y="320" width="120" height="80" as="geometry" />
        </mxCell>
        <mxCell id="-y_LgxugTVta52kixlfS-37" value="include" style="text;html=1;align=center;verticalAlign=middle;resizable=0;points=[];autosize=1;strokeColor=none;fillColor=none;" vertex="1" parent="1">
          <mxGeometry x="540" y="190" width="60" height="30" as="geometry" />
        </mxCell>
        <mxCell id="-y_LgxugTVta52kixlfS-60" style="edgeStyle=orthogonalEdgeStyle;rounded=0;orthogonalLoop=1;jettySize=auto;html=1;entryX=1;entryY=0;entryDx=0;entryDy=0;" edge="1" parent="1" source="-y_LgxugTVta52kixlfS-57" target="-y_LgxugTVta52kixlfS-20">
          <mxGeometry relative="1" as="geometry" />
        </mxCell>
        <mxCell id="-y_LgxugTVta52kixlfS-57" value="Supprimer" style="ellipse;whiteSpace=wrap;html=1;" vertex="1" parent="1">
          <mxGeometry x="720" y="20" width="120" height="80" as="geometry" />
        </mxCell>
        <mxCell id="-y_LgxugTVta52kixlfS-59" style="edgeStyle=orthogonalEdgeStyle;rounded=0;orthogonalLoop=1;jettySize=auto;html=1;entryX=0;entryY=0;entryDx=0;entryDy=0;" edge="1" parent="1" source="-y_LgxugTVta52kixlfS-58" target="-y_LgxugTVta52kixlfS-20">
          <mxGeometry relative="1" as="geometry" />
        </mxCell>
        <mxCell id="-y_LgxugTVta52kixlfS-58" value="Modifier" style="ellipse;whiteSpace=wrap;html=1;" vertex="1" parent="1">
          <mxGeometry x="550" y="20" width="120" height="80" as="geometry" />
        </mxCell>
        <mxCell id="-y_LgxugTVta52kixlfS-61" value="extend" style="text;html=1;align=center;verticalAlign=middle;resizable=0;points=[];autosize=1;strokeColor=none;fillColor=none;" vertex="1" parent="1">
          <mxGeometry x="610" y="108" width="60" height="30" as="geometry" />
        </mxCell>
        <mxCell id="-y_LgxugTVta52kixlfS-62" value="extend" style="text;html=1;align=center;verticalAlign=middle;resizable=0;points=[];autosize=1;strokeColor=none;fillColor=none;" vertex="1" parent="1">
          <mxGeometry x="780" y="110" width="60" height="30" as="geometry" />
        </mxCell>
      </root>
    </mxGraphModel>
  </diagram>
</mxfile>
